HIERARCHY
ROOT hip
{
  OFFSET 0 0 0
  CHANNELS 6 Xposition Yposition Zposition Zrotation Yrotation Xrotation
  JOINT abdomen
  {
    OFFSET 0 20.6881 -0.73152
    CHANNELS 3 Zrotation Xrotation Yrotation
    JOINT chest
    {
      OFFSET 0 11.7043 -0.48768
      CHANNELS 3 Zrotation Xrotation Yrotation
      JOINT neck
      {
        OFFSET 0 22.1894 -2.19456
        CHANNELS 3 Zrotation Xrotation Yrotation
        JOINT head
        {
          OFFSET -0.24384 7.07133 1.2192
          CHANNELS 3 Zrotation Xrotation Yrotation
          JOINT leftEye
          {
            OFFSET 4.14528 8.04674 8.04672
            CHANNELS 3 Zrotation Xrotation Yrotation
            End Site
            {
              OFFSET 1 0 0
            }
          }
          JOINT rightEye
          {
            OFFSET -3.6576 8.04674 8.04672
            CHANNELS 3 Zrotation Xrotation Yrotation
            End Site
            {
              OFFSET 1 0 0
            }
          }
        }
      }
      JOINT rCollar
      {
        OFFSET -2.68224 19.2634 -4.8768
        CHANNELS 3 Zrotation Xrotation Yrotation
        JOINT rShldr
        {
          OFFSET -8.77824 -1.95073 1.46304
          CHANNELS 3 Zrotation Xrotation Yrotation
          JOINT rForeArm
          {
            OFFSET -28.1742 -1.7115 0.48768
            CHANNELS 3 Zrotation Xrotation Yrotation
            JOINT rHand
            {
              OFFSET -22.5879 0.773209 7.07136
              CHANNELS 3 Zrotation Xrotation Yrotation
              JOINT rThumb1
              {
                OFFSET -1.2192 -0.487915 3.41376
                CHANNELS 3 Zrotation Xrotation Yrotation
                JOINT rThumb2
                {
                  OFFSET -3.37035 -0.52449 3.41376
                  CHANNELS 3 Zrotation Xrotation Yrotation
                  End Site
                  {
                    OFFSET -1.78271 -1.18214 1.43049
                  }
                }
              }
              JOINT rIndex1
              {
                OFFSET -7.75947 0.938293 5.60832
                CHANNELS 3 Zrotation Xrotation Yrotation
                JOINT rIndex2
                {
                  OFFSET -2.54057 -0.884171 1.56538
                  CHANNELS 3 Zrotation Xrotation Yrotation
                  End Site
                  {
                    OFFSET -1.62519 -0.234802 1.16502
                  }
                }
              }
              JOINT rMid1
              {
                OFFSET -8.24714 1.18213 3.41376
                CHANNELS 3 Zrotation Xrotation Yrotation
                JOINT rMid2
                {
                  OFFSET -3.10165 -0.590103 1.0647
                  CHANNELS 3 Zrotation Xrotation Yrotation
                  End Site
                  {
                    OFFSET -2.48547 -0.328903 0.83742
                  }
                }
              }
              JOINT rRing1
              {
                OFFSET -8.82822 0.546677 1.51678
                CHANNELS 3 Zrotation Xrotation Yrotation
                JOINT rRing2
                {
                  OFFSET -2.60934 -0.819778 -0.0198488
                  CHANNELS 3 Zrotation Xrotation Yrotation
                  End Site
                  {
                    OFFSET -2.33842 -0.294052 0.168128
                  }
                }
              }
              JOINT rPinky1
              {
                OFFSET -8.27202 -0.0477905 -0.4584
                CHANNELS 3 Zrotation Xrotation Yrotation
                JOINT rPinky2
                {
                  OFFSET -1.82734 -0.647385 -0.700984
                  CHANNELS 3 Zrotation Xrotation Yrotation
                  End Site
                  {
                    OFFSET -1.69225 -0.51767 -0.607171
                  }
                }
              }
            }
          }
        }
      }
      JOINT lCollar
      {
        OFFSET 2.68224 19.2634 -4.8768
        CHANNELS 3 Zrotation Xrotation Yrotation
        JOINT lShldr
        {
          OFFSET 8.77824 -1.95073 1.46304
          CHANNELS 3 Zrotation Xrotation Yrotation
          JOINT lForeArm
          {
            OFFSET 28.1742 -1.7115 0.48768
            CHANNELS 3 Zrotation Xrotation Yrotation
            JOINT lHand
            {
              OFFSET 22.5879 0.773209 7.07136
              CHANNELS 3 Zrotation Xrotation Yrotation
              JOINT lThumb1
              {
                OFFSET 1.2192 -0.487915 3.41376
                CHANNELS 3 Zrotation Xrotation Yrotation
                JOINT lThumb2
                {
                  OFFSET 3.37035 -0.52449 3.41376
                  CHANNELS 3 Zrotation Xrotation Yrotation
                  End Site
                  {
                    OFFSET 1.78271 -1.18214 1.43049
                  }
                }
              }
              JOINT lIndex1
              {
                OFFSET 7.75947 0.938293 5.60832
                CHANNELS 3 Zrotation Xrotation Yrotation
                JOINT lIndex2
                {
                  OFFSET 2.54057 -0.884171 1.56538
                  CHANNELS 3 Zrotation Xrotation Yrotation
                  End Site
                  {
                    OFFSET 1.62519 -0.234802 1.16502
                  }
                }
              }
              JOINT lMid1
              {
                OFFSET 8.24714 1.18213 3.41376
                CHANNELS 3 Zrotation Xrotation Yrotation
                JOINT lMid2
                {
                  OFFSET 3.10165 -0.590103 1.0647
                  CHANNELS 3 Zrotation Xrotation Yrotation
                  End Site
                  {
                    OFFSET 2.48547 -0.328903 0.83742
                  }
                }
              }
              JOINT lRing1
              {
                OFFSET 8.82822 0.546677 1.51678
                CHANNELS 3 Zrotation Xrotation Yrotation
                JOINT lRing2
                {
                  OFFSET 2.60934 -0.819778 -0.0198488
                  CHANNELS 3 Zrotation Xrotation Yrotation
                  End Site
                  {
                    OFFSET 2.33842 -0.294052 0.168128
                  }
                }
              }
              JOINT lPinky1
              {
                OFFSET 8.27202 -0.0477905 -0.4584
                CHANNELS 3 Zrotation Xrotation Yrotation
                JOINT lPinky2
                {
                  OFFSET 1.82734 -0.647385 -0.700984
                  CHANNELS 3 Zrotation Xrotation Yrotation
                  End Site
                  {
                    OFFSET 1.69225 -0.51767 -0.607171
                  }
                }
              }
            }
          }
        }
      }
    }
  }
  JOINT rButtock
  {
    OFFSET -8.77824 4.35084 1.2192
    CHANNELS 3 Zrotation Xrotation Yrotation
    JOINT rThigh
    {
      OFFSET 0 -1.70687 -2.19456
      CHANNELS 3 Zrotation Xrotation Yrotation
      JOINT rShin
      {
        OFFSET 0 -36.8199 0.73152
        CHANNELS 3 Zrotation Xrotation Yrotation
        JOINT rFoot
        {
          OFFSET 0.73152 -45.1104 -5.12064
          CHANNELS 3 Zrotation Xrotation Yrotation
          End Site
          {
            OFFSET -1.1221 -3.69964 12.103
          }
        }
      }
    }
  }
  JOINT lButtock
  {
    OFFSET 8.77824 4.35084 1.2192
    CHANNELS 3 Zrotation Xrotation Yrotation
    JOINT lThigh
    {
      OFFSET 0 -1.70687 -2.19456
      CHANNELS 3 Zrotation Xrotation Yrotation
      JOINT lShin
      {
        OFFSET 0 -36.8199 0.73152
        CHANNELS 3 Zrotation Xrotation Yrotation
        JOINT lFoot
        {
          OFFSET -0.73152 -45.1104 -5.12064
          CHANNELS 3 Zrotation Xrotation Yrotation
          End Site
          {
            OFFSET 1.1221 -3.69964 12.103
          }
        }
      }
    }
  }
}
MOTION
Frames:	7
Frame Time:	0.00833333
-4.2276 83.9933 76.6841 0.0 0.0 0.0 -1.70622 -0.00254499 -0.0464502 -0.470561 0.00242734 -0.0814848 8.14703e-15 0.0 -5.96354e-16 2.38573e-14 3.18055e-15 -1.78906e-15 -0.0 0.0 0.0 -0.0 0.0 0.0 3.77604e-15 5.82377e-17 -1.98785e-16 8.66438e-14 1.36043e-15 -4.96962e-15 1.45346e-12 -3.87034e-13 -1.11319e-13 1.66027e-11 6.50374e-13 -1.21497e-12 3.91704e-11 5.65701e-13 -2.87522e-12 6.76401e-11 9.7325e-13 -4.98075e-12 3.91745e-11 5.67729e-13 -2.88794e-12 7.73091 5.47488 0.417314 3.91711e-11 5.65443e-13 -2.87522e-12 2.90554 0.965183 0.102902 3.91783e-11 5.65841e-13 -2.8792e-12 10.2786 0.731801 0.0259123 3.91673e-11 5.68127e-13 -2.87522e-12 2.22167 -0.733487 -0.20892 3.77805e-15 5.39669e-17 -3.97569e-16 8.15698e-14 8.75895e-16 -6.75868e-15 1.44929e-12 4.7112e-13 -1.55847e-13 1.66082e-11 -2.20949e-13 -1.16408e-12 3.91743e-11 5.47014e-13 -2.88476e-12 6.76599e-11 9.50986e-13 -4.97757e-12 3.91705e-11 5.49441e-13 -2.86886e-12 -7.73091 5.47488 -0.417314 3.91755e-11 5.47155e-13 -2.88158e-12 -2.90554 0.965183 -0.102902 3.91697e-11 5.47354e-13 -2.88079e-12 -10.2786 0.731801 -0.0259123 3.91793e-11 5.49838e-13 -2.88794e-12 -2.22167 -0.733487 0.20892 -2.03217e-16 0.0 -3.88251e-19 -0.81064 -1.92439 -0.00361256 -0.00901511 -2.07859 -0.07431 -0.483827 3.99775 0.136132 2.03217e-16 0.0 3.88251e-19 -1.78653 -6.85421 0.170482 -0.00323784 6.85138 -0.0863835 0.513078 -0.00230977 -0.0581983
-6.01451 82.4737 69.3647 177.681 -4.3624 -172.31 -2.78562 -1.22629 -0.998448 0.89977 0.214384 -0.36039 -2.50676 -0.412317 1.48586 1.26284 5.39031 1.81685 -0.0 0.0 0.0 -0.0 0.0 0.0 6.90433e-14 3.10709e-14 1.7846e-14 20.8716 4.44521 -0.165614 -4.79184 -2.3047 7.34098 0.0513335 5.02945 0.697044 -2.96131e-10 4.80462e-10 -3.52726e-10 -5.16232e-10 8.31501e-10 -6.038e-10 -2.96124e-10 4.80462e-10 -3.52737e-10 7.73091 5.47488 0.417314 -2.96129e-10 4.8046e-10 -3.52723e-10 2.90554 0.965183 0.102902 -2.96123e-10 4.80461e-10 -3.52728e-10 10.2786 0.731801 0.0259123 -2.96136e-10 4.80463e-10 -3.52723e-10 2.22167 -0.733487 -0.20892 6.89963e-14 3.10684e-14 1.76076e-14 -18.8221 16.4296 -12.446 -2.54171 14.672 42.4743 -0.412176 -14.3291 1.79394 3.1734e-11 -8.95023e-11 -2.7055e-10 6.66933e-11 -1.5727e-10 -4.6689e-10 3.17262e-11 -8.95009e-11 -2.70533e-10 -7.73091 5.47488 -0.417314 3.17343e-11 -8.95036e-11 -2.70547e-10 -2.90554 0.965183 -0.102902 3.17296e-11 -8.95023e-11 -2.70546e-10 -10.2786 0.731801 -0.0259123 3.17384e-11 -8.95001e-11 -2.70553e-10 -2.22167 -0.733487 0.20892 -2.03217e-16 0.0 -3.88251e-19 -0.765787 -6.91686 0.54294 0.0211131 6.91412 0.100532 -0.773831 -2.04293 -2.16031 2.03217e-16 0.0 3.88251e-19 -2.96998 -9.58619 -0.611715 -0.0235583 11.8841 -0.164679 0.654405 -3.16449 1.06383
-5.98782 82.4727 69.3583 177.811 -4.4102 -172.345 -3.97139 -2.52029 -2.0042 2.34996 0.437797 -0.654609 -5.15239 -0.842957 3.11013 2.25054 11.0653 3.73987 -0.0 0.0 0.0 -0.0 0.0 0.0 1.4089e-13 6.56732e-14 3.77908e-14 42.964 9.14691 -0.346647 -9.22166 -4.61556 15.1404 -0.029431 10.3398 1.45144 -6.62389e-10 1.01288e-09 -7.45524e-10 -1.15415e-09 1.75303e-09 -1.2763e-09 -6.62377e-10 1.01288e-09 -7.45532e-10 7.73091 5.47488 0.417314 -6.62385e-10 1.01288e-09 -7.45516e-10 2.90554 0.965183 0.102902 -6.62381e-10 1.01288e-09 -7.45523e-10 10.2786 0.731801 0.0259123 -6.62395e-10 1.01288e-09 -7.45517e-10 2.22167 -0.733487 -0.20892 1.40791e-13 6.56726e-14 3.75113e-14 -30.0969 31.081 -29.0031 -18.4175 3.92844 85.3391 0.258012 -29.3954 4.10169 2.67489e-11 -1.89813e-10 -5.66319e-10 7.12023e-11 -3.33438e-10 -9.77167e-10 2.67368e-11 -1.89813e-10 -5.663e-10 -7.73091 5.47488 -0.417314 2.67483e-11 -1.89816e-10 -5.66315e-10 -2.90554 0.965183 -0.102902 2.67448e-11 -1.89814e-10 -5.66315e-10 -10.2786 0.731801 -0.0259123 2.67527e-11 -1.89812e-10 -5.66322e-10 -2.22167 -0.733487 0.20892 -2.03217e-16 0.0 -3.88251e-19 -0.613112 -12.1932 1.13868 -0.00873714 16.4204 0.296004 -1.61043 -8.4053 -4.63292 2.03217e-16 0.0 3.88251e-19 -4.30503 -12.4714 -1.45665 -0.0292204 17.2036 -0.252188 0.939549 -6.50213 2.26325
-5.99338 82.4734 69.3566 177.77 -4.3407 -172.349 -5.06657 -3.66961 -2.90772 3.64662 0.638229 -0.91825 -7.45617 -1.23363 4.4585 2.72909 16.1045 5.64879 -0.0 0.0 0.0 -0.0 0.0 0.0 1.99578e-13 9.30963e-14 5.39355e-14 62.6938 13.3352 -0.509074 -12.6429 -6.46109 22.1531 -0.224172 15.0793 2.1574 -9.66734e-10 1.44025e-09 -1.05243e-09 -1.68397e-09 2.49256e-09 -1.80144e-09 -9.6672e-10 1.44025e-09 -1.05243e-09 7.73091 5.47488 0.417314 -9.66729e-10 1.44025e-09 -1.05242e-09 2.90554 0.965183 0.102902 -9.66726e-10 1.44025e-09 -1.05243e-09 10.2786 0.731801 0.0259123 -9.66742e-10 1.44025e-09 -1.05242e-09 2.22167 -0.733487 -0.20892 1.99433e-13 9.30974e-14 5.36179e-14 -31.9161 38.6889 -48.5248 -22.6397 -27.1932 108.254 2.27656 -42.7868 7.11357 1.68534e-11 -2.69601e-10 -8.05881e-10 6.47602e-11 -4.73712e-10 -1.39072e-09 1.68376e-11 -2.69602e-10 -8.0586e-10 -7.73091 5.47488 -0.417314 1.68521e-11 -2.69605e-10 -8.05878e-10 -2.90554 0.965183 -0.102902 1.68494e-11 -2.69602e-10 -8.05877e-10 -10.2786 0.731801 -0.0259123 1.68567e-11 -2.696e-10 -8.05884e-10 -2.22167 -0.733487 0.20892 -2.03217e-16 0.0 -3.88251e-19 -0.379015 -16.8957 1.69748 -0.0956274 24.8988 0.493826 -2.83593 -14.0288 -6.95687 2.03217e-16 0.0 3.88251e-19 -5.56805 -15.0409 -2.22428 -0.0196249 21.9494 -0.336292 1.3127 -9.47457 3.34874
-6.00984 82.4696 69.3695 177.745 -4.2158 -172.278 -5.84917 -4.46114 -3.55065 4.55518 0.781269 -1.1054 -8.95331 -1.52799 5.11622 2.64344 19.6085 7.34776 -0.0 0.0 0.0 -0.0 0.0 0.0 2.2537e-13 1.02571e-13 6.05796e-14 76.4589 16.2404 -0.612875 -14.7496 -7.57551 27.0748 -0.434095 18.4002 2.67968 -1.1163e-09 1.605e-09 -1.1446e-09 -1.94358e-09 2.77704e-09 -1.95816e-09 -1.11628e-09 1.605e-09 -1.14461e-09 7.73091 5.47488 0.417314 -1.11629e-09 1.605e-09 -1.14459e-09 2.90554 0.965183 0.102902 -1.11629e-09 1.605e-09 -1.1446e-09 10.2786 0.731801 0.0259123 -1.11631e-09 1.605e-09 -1.14459e-09 2.22167 -0.733487 -0.20892 2.2519e-13 1.02574e-13 6.02318e-14 -30.1963 39.4219 -63.3666 -18.3953 -54.4891 117.981 5.11359 -52.1631 10.4247 -5.31789e-12 -2.98082e-10 -9.04928e-10 3.09404e-11 -5.24251e-10 -1.56245e-09 -5.33618e-12 -2.98082e-10 -9.04906e-10 -7.73091 5.47488 -0.417314 -5.31963e-12 -2.98085e-10 -9.04925e-10 -2.90554 0.965183 -0.102902 -5.32214e-12 -2.98082e-10 -9.04924e-10 -10.2786 0.731801 -0.0259123 -5.3153e-12 -2.9808e-10 -9.04931e-10 -2.22167 -0.733487 0.20892 -2.03217e-16 0.0 -3.88251e-19 -0.155272 -20.1692 2.1077 -0.196201 30.8082 0.653854 -3.97881 -17.9008 -8.69055 2.03217e-16 0.0 3.88251e-19 -6.48468 -16.829 -2.75876 -0.00441687 25.2614 -0.399243 1.63844 -11.5478 4.11031
-6.01938 82.4663 69.3778 177.758 -4.1386 -172.229 -6.14915 -4.75222 -3.82614 4.91559 0.845917 -1.1858 -9.30924 -1.69976 4.71885 2.04803 21.0149 8.71149 -0.0 0.0 0.0 -0.0 0.0 0.0 1.99745e-13 8.63409e-14 5.38532e-14 81.8499 17.3395 -0.62304 -15.512 -7.96228 28.9993 -0.53685 19.7519 2.90027 -1.04157e-09 1.37691e-09 -8.94224e-10 -1.81125e-09 2.38058e-09 -1.52676e-09 -1.04156e-09 1.37691e-09 -8.94225e-10 7.73091 5.47488 0.417314 -1.04157e-09 1.37691e-09 -8.94214e-10 2.90554 0.965183 0.102902 -1.04157e-09 1.37691e-09 -8.94222e-10 10.2786 0.731801 0.0259123 -1.04158e-09 1.37691e-09 -8.94217e-10 2.22167 -0.733487 -0.20892 1.99539e-13 8.63442e-14 5.34766e-14 -29.551 38.526 -68.8098 -14.3562 -65.702 121.976 6.9212 -56.1941 12.3986 -3.8157e-11 -2.47752e-10 -7.81258e-10 -3.11808e-11 -4.36568e-10 -1.35042e-09 -3.81764e-11 -2.4775e-10 -7.81234e-10 -7.73091 5.47488 -0.417314 -3.81585e-11 -2.47754e-10 -7.81256e-10 -2.90554 0.965183 -0.102902 -3.81621e-11 -2.4775e-10 -7.81255e-10 -10.2786 0.731801 -0.0259123 -3.81553e-11 -2.47749e-10 -7.81261e-10 -2.22167 -0.733487 0.20892 -2.03217e-16 0.0 -3.88251e-19 -0.0442022 -21.4451 2.26805 -0.244539 33.1211 0.72165 -4.50195 -19.3977 -9.41916 2.03217e-16 0.0 3.88251e-19 -6.83411 -17.5299 -2.94029 0.00201097 26.5686 -0.424298 1.77556 -12.3748 4.38826
-6.03458 82.466 69.3761 177.765 -4.1615 -172.231 -6.09566 -4.68676 -3.83813 4.88413 0.854491 -1.18993 -8.85768 -1.78354 3.57177 1.2069 20.9368 9.78076 -0.0 0.0 0.0 -0.0 0.0 0.0 1.37648e-13 5.17773e-14 3.75796e-14 81.2539 17.149 -0.564274 -15.4201 -7.91321 28.7667 -0.530338 19.6984 2.89095 -8.06999e-10 8.69423e-10 -4.01163e-10 -1.3996e-09 1.49983e-09 -6.78708e-10 -8.06994e-10 8.69426e-10 -4.01162e-10 7.73091 5.47488 0.417314 -8.06998e-10 8.69424e-10 -4.01157e-10 2.90554 0.965183 0.102902 -8.06994e-10 8.69425e-10 -4.01163e-10 10.2786 0.731801 0.0259123 -8.0701e-10 8.69425e-10 -4.01161e-10 2.22167 -0.733487 -0.20892 1.37423e-13 5.17811e-14 3.71758e-14 -29.788 38.45 -68.1768 -15.061 -64.4081 121.241 7.00053 -56.4989 12.5173 -7.89264e-11 -1.41462e-10 -4.99741e-10 -1.13995e-10 -2.50756e-10 -8.66426e-10 -7.89458e-11 -1.41457e-10 -4.99717e-10 -7.73091 5.47488 -0.417314 -7.89272e-11 -1.4146e-10 -4.99741e-10 -2.90554 0.965183 -0.102902 -7.89328e-11 -1.41457e-10 -4.9974e-10 -10.2786 0.731801 -0.0259123 -7.89257e-11 -1.41457e-10 -4.99745e-10 -2.22167 -0.733487 0.20892 -2.03217e-16 0.0 -3.88251e-19 -0.0393154 -21.2952 2.23816 -0.235505 32.8653 0.710292 -4.45573 -19.2212 -9.37351 2.03217e-16 0.0 3.88251e-19 -6.7611 -17.4554 -2.86356 -0.00193796 26.4438 -0.419919 1.74946 -12.3144 4.31274
